<?xml version="1.0" encoding="UTF-8" standalone="no"?>
<!-- Created with Inkscape (http://www.inkscape.org/) -->

<svg
   width="67.653534mm"
   height="10.446755mm"
   viewBox="0 0 67.653533 10.446755"
   version="1.1"
   id="svg5"
   xml:space="preserve"
   inkscape:export-filename="logo-acos.png"
   inkscape:export-xdpi="96"
   inkscape:export-ydpi="96"
   inkscape:version="1.2.1 (9c6d41e410, 2022-07-14, custom)"
   sodipodi:docname="logoAcos.svg"
   xmlns:inkscape="http://www.inkscape.org/namespaces/inkscape"
   xmlns:sodipodi="http://sodipodi.sourceforge.net/DTD/sodipodi-0.dtd"
   xmlns:xlink="http://www.w3.org/1999/xlink"
   xmlns="http://www.w3.org/2000/svg"
   xmlns:svg="http://www.w3.org/2000/svg"><sodipodi:namedview
     id="namedview7"
     pagecolor="#ffffff"
     bordercolor="#000000"
     borderopacity="0.25"
     inkscape:showpageshadow="2"
     inkscape:pageopacity="0.0"
     inkscape:pagecheckerboard="0"
     inkscape:deskcolor="#d1d1d1"
     inkscape:document-units="mm"
     showgrid="false"
     inkscape:zoom="1.5344309"
     inkscape:cx="208.54637"
     inkscape:cy="39.428299"
     inkscape:window-width="1366"
     inkscape:window-height="719"
     inkscape:window-x="0"
     inkscape:window-y="20"
     inkscape:window-maximized="1"
     inkscape:current-layer="svg5"
     showguides="true"><sodipodi:guide
       position="31.410137,17.633486"
       orientation="0,-1"
       id="guide2592"
       inkscape:locked="false" /></sodipodi:namedview><defs
     id="defs2"><linearGradient
       inkscape:collect="always"
       id="linearGradient3375"><stop
         style="stop-color:#f2fcf6;stop-opacity:1;"
         offset="0"
         id="stop3371" /><stop
         style="stop-color:#ffffff;stop-opacity:0;"
         offset="1"
         id="stop3373" /></linearGradient><rect
       x="-97.350082"
       y="57.887489"
       width="32.880585"
       height="32.329601"
       id="rect2438" /><linearGradient
       inkscape:collect="always"
       id="linearGradient4690"><stop
         style="stop-color:#4a79b8;stop-opacity:0.8745098;"
         offset="0.125"
         id="stop4698" /><stop
         style="stop-color:#4a79b8;stop-opacity:0.74901961;"
         offset="0.25"
         id="stop4694" /></linearGradient><linearGradient
       inkscape:collect="always"
       id="linearGradient4670"><stop
         style="stop-color:#4a79b8;stop-opacity:1;"
         offset="0"
         id="stop4666" /><stop
         style="stop-color:#4a79b8;stop-opacity:0;"
         offset="1"
         id="stop4668" /></linearGradient><linearGradient
       id="linearGradient3530"
       inkscape:swatch="solid"><stop
         style="stop-color:#77789d;stop-opacity:1;"
         offset="0"
         id="stop3528" /></linearGradient><linearGradient
       inkscape:collect="always"
       id="linearGradient2510"><stop
         style="stop-color:#4ea8de;stop-opacity:1;"
         offset="0"
         id="stop2506" /><stop
         style="stop-color:#5e60ce;stop-opacity:0;"
         offset="1"
         id="stop2508" /></linearGradient><rect
       x="266.52765"
       y="511.24564"
       width="228.9304"
       height="32.9034"
       id="rect699" /><linearGradient
       inkscape:collect="always"
       xlink:href="#linearGradient2510"
       id="linearGradient1778"
       x1="241.94531"
       y1="528.8446"
       x2="520.26477"
       y2="514.51611"
       gradientUnits="userSpaceOnUse" /><linearGradient
       inkscape:collect="always"
       xlink:href="#linearGradient4670"
       id="linearGradient4672"
       x1="-142.20695"
       y1="-10.535207"
       x2="-180.55296"
       y2="-60.961948"
       gradientUnits="userSpaceOnUse" /><linearGradient
       inkscape:collect="always"
       xlink:href="#linearGradient4690"
       id="linearGradient4678"
       gradientUnits="userSpaceOnUse"
       x1="-142.20695"
       y1="-10.535207"
       x2="-180.55296"
       y2="-60.961948" /><linearGradient
       inkscape:collect="always"
       xlink:href="#linearGradient3375"
       id="linearGradient3689"
       gradientUnits="userSpaceOnUse"
       x1="-131.88216"
       y1="-14.761234"
       x2="104.14613"
       y2="-14.761234"
       spreadMethod="reflect" /><linearGradient
       inkscape:collect="always"
       xlink:href="#linearGradient5392"
       id="linearGradient5384"
       x1="14.880289"
       y1="18.938059"
       x2="50.000008"
       y2="18.938059"
       gradientUnits="userSpaceOnUse"
       spreadMethod="reflect" /><linearGradient
       inkscape:collect="always"
       id="linearGradient5392"><stop
         style="stop-color:#8882f3;stop-opacity:0.73333335;"
         offset="0"
         id="stop5386" /><stop
         style="stop-color:#51e5a5;stop-opacity:1;"
         offset="0.51630408"
         id="stop5388" /><stop
         style="stop-color:#d3d663;stop-opacity:1;"
         offset="1"
         id="stop5390" /></linearGradient><linearGradient
       inkscape:collect="always"
       xlink:href="#linearGradient5392"
       id="linearGradient5575"
       gradientUnits="userSpaceOnUse"
       gradientTransform="matrix(1.27167,0,0,1.27167,-16.470398,-27.876529)"
       x1="77.541977"
       y1="73.995316"
       x2="129.72871"
       y2="73.995316" /><linearGradient
       inkscape:collect="always"
       xlink:href="#linearGradient5392"
       id="linearGradient984"
       gradientUnits="userSpaceOnUse"
       x1="14.880289"
       y1="18.938059"
       x2="50.000008"
       y2="18.938059"
       spreadMethod="reflect" /><linearGradient
       inkscape:collect="always"
       xlink:href="#linearGradient5392"
       id="linearGradient986"
       gradientUnits="userSpaceOnUse"
       x1="14.880289"
       y1="18.938059"
       x2="50.000008"
       y2="18.938059"
       spreadMethod="reflect" /><linearGradient
       inkscape:collect="always"
       xlink:href="#linearGradient5392"
       id="linearGradient988"
       gradientUnits="userSpaceOnUse"
       x1="14.880289"
       y1="18.938059"
       x2="50.000008"
       y2="18.938059"
       spreadMethod="reflect" /><linearGradient
       inkscape:collect="always"
       xlink:href="#linearGradient5392"
       id="linearGradient990"
       gradientUnits="userSpaceOnUse"
       x1="14.880289"
       y1="18.938059"
       x2="50.000008"
       y2="18.938059"
       spreadMethod="reflect" /><linearGradient
       inkscape:collect="always"
       xlink:href="#linearGradient5392"
       id="linearGradient992"
       gradientUnits="userSpaceOnUse"
       x1="14.880289"
       y1="18.938059"
       x2="50.000008"
       y2="18.938059"
       spreadMethod="reflect" /><linearGradient
       inkscape:collect="always"
       xlink:href="#linearGradient5392"
       id="linearGradient1003"
       gradientUnits="userSpaceOnUse"
       gradientTransform="matrix(1.27167,0,0,1.27167,-16.470398,-27.876529)"
       x1="77.541977"
       y1="73.995316"
       x2="129.72871"
       y2="73.995316" /></defs><g
     id="g5526"
     transform="matrix(1.1219425,0,0,1.1219425,-83.732946,-73.967755)"><g
       id="g946"
       transform="matrix(0.24583605,0,0,0.24583605,73.114421,65.928292)"
       style="font-variation-settings:normal;opacity:1;fill:url(#linearGradient5384);fill-opacity:1;fill-rule:nonzero;stroke-width:2.09349;stroke-linecap:butt;stroke-linejoin:miter;stroke-miterlimit:4;stroke-dasharray:none;stroke-dashoffset:0;stroke-opacity:1;stop-color:#000000;stop-opacity:1"
       inkscape:label="foguete"><g
         id="g7557"
         transform="matrix(0.70239437,0,0,0.70239437,14.880284,2.7414249e-6)"
         style="font-variation-settings:normal;fill:url(#linearGradient992);fill-opacity:1;fill-rule:nonzero;stroke-width:2.98051;stroke-linecap:butt;stroke-linejoin:miter;stroke-miterlimit:4;stroke-dasharray:none;stroke-dashoffset:0;stroke-opacity:1;stop-color:#000000;stop-opacity:1"
         inkscape:label="g7557"><g
           strokeWidth="1.046"
           transform="matrix(1.6916741,0,0,1.9183268,121.4582,-237.22093)"
           id="g84"
           style="font-variation-settings:normal;fill:url(#linearGradient990);fill-opacity:1;fill-rule:nonzero;stroke-width:1.65451;stroke-linecap:butt;stroke-linejoin:miter;stroke-miterlimit:4;stroke-dasharray:none;stroke-dashoffset:0;stroke-opacity:1;stop-color:#000000;stop-opacity:1"><path
             d="m -42.605,124.208 -4.778,-0.541 a 0.502,0.502 0 0 0 -0.34,0.065 l -2.035,2.035 a 0.407,0.407 0 0 0 -0.113,0.454 c 0.057,0.152 -0.113,0.282 -0.31,0.26 L -51.85,126.2 c -0.254,-0.044 -0.537,0.02 -0.706,0.194 l -6.615,6.494 c -0.114,0.13 -0.34,0.173 -0.538,0.109 l -2.516,-0.866 a 0.821,0.821 0 0 0 -0.678,0.043 l -1.272,0.671 a 0.89,0.89 0 0 1 -0.707,0.044 l -0.622,-0.238 c -0.396,-0.152 -0.876,0.02 -0.99,0.346 l -0.452,1.537 c -0.113,0.368 0.085,0.736 0.51,0.93 l 0.96,0.455 3.082,1.45 1.498,0.715 c 0.424,0.194 0.961,0.151 1.329,-0.087 l 2.516,-1.688 c 0.198,-0.13 0.509,-0.173 0.735,-0.065 l 0.763,0.303 a 0.793,0.793 0 0 0 0.763,-0.087 l 1.272,-0.909 c 0.198,-0.151 0.51,-0.173 0.735,-0.087 l 1.895,0.672 c 0.282,0.108 0.621,0.043 0.82,-0.152 l 0.876,-0.866 6.643,-6.515 c 0.311,-0.303 0.113,-0.758 -0.396,-0.844 l -1.47,-0.26 c -0.31,-0.044 -0.452,-0.347 -0.226,-0.52 l 2.29,-2.186 c 0.226,-0.26 0.085,-0.541 -0.255,-0.585 z"
             id="path78"
             style="font-variation-settings:normal;fill:url(#linearGradient984);fill-opacity:1;fill-rule:nonzero;stroke-width:1.65451;stroke-linecap:butt;stroke-linejoin:miter;stroke-miterlimit:4;stroke-dasharray:none;stroke-dashoffset:0;stroke-opacity:1;stop-color:#000000;stop-opacity:1" /><path
             d="m -64.517,137.325 c -0.141,-0.065 -0.283,0.043 -0.226,0.151 l 0.707,1.429 a 0.434,0.434 0 0 1 0.028,0.325 l -0.622,1.861 c -0.028,0.13 0.028,0.26 0.141,0.325 l 1.781,1.06 c 0.17,0.087 0.396,0.087 0.537,-0.02 l 1.866,-1.256 c 0.113,-0.065 0.255,-0.108 0.368,-0.13 l 2.12,-0.173 c 0.141,-0.021 0.198,-0.173 0.056,-0.238 z"
             id="path80"
             style="font-variation-settings:normal;fill:url(#linearGradient986);fill-opacity:1;fill-rule:nonzero;stroke-width:1.65451;stroke-linecap:butt;stroke-linejoin:miter;stroke-miterlimit:4;stroke-dasharray:none;stroke-dashoffset:0;stroke-opacity:1;stop-color:#000000;stop-opacity:1" /><path
             d="m -65.139,142.132 a 0.568,0.568 0 0 0 -0.424,-0.043 l -1.498,0.563 c -0.085,0.02 -0.141,0.086 -0.198,0.151 l -3.194,6.04 v 0.043 c 0.028,0.021 0.056,0.043 0.113,0.043 l 0.735,-0.216 h 0.084 c 0.029,0.021 0.057,0.065 0.029,0.086 l -2.29,2.88 c -0.057,0.064 0.056,0.13 0.113,0.064 l 8.283,-6.364 a 0.387,0.387 0 0 0 0.141,-0.216 l 0.17,-1.645 a 0.325,0.325 0 0 0 -0.142,-0.26 z"
             id="path82"
             style="font-variation-settings:normal;fill:url(#linearGradient988);fill-opacity:1;fill-rule:nonzero;stroke-width:1.65451;stroke-linecap:butt;stroke-linejoin:miter;stroke-miterlimit:4;stroke-dasharray:none;stroke-dashoffset:0;stroke-opacity:1;stop-color:#000000;stop-opacity:1" /></g></g></g><text
       xml:space="preserve"
       style="font-size:6.2346px;line-height:normal;font-family:'Neon Zone';-inkscape-font-specification:'Neon Zone';text-decoration-color:#000000;fill:url(#linearGradient1003);fill-opacity:1;stroke-width:0.187037;stop-color:#000000"
       x="81.832985"
       y="67.74321"
       id="text2506"
       transform="scale(0.90862519,1.1005638)"
       inkscape:label="text2506"><tspan
         sodipodi:role="line"
         id="tspan2504"
         style="fill:url(#linearGradient1003);fill-opacity:1;stroke-width:0.187037"
         x="81.832985"
         y="67.74321">&lt;  ACos-services/&gt;</tspan></text></g></svg>
